<svg width="302" height="302" viewBox="0 0 302 302" fill="none" xmlns="http://www.w3.org/2000/svg">
<path d="M0 148.133L6.68987 142.876L291.965 162.468L301.522 172.503L277.152 182.538L219.332 229.367L180.149 244.658L106.56 300.566L0 148.133Z" fill="black"/>
<path d="M184.007 68.0859L224.875 111.55C226.56 109.783 228.913 108.745 231.423 108.745H251.128L235.834 93.2407L229.942 98.8867C228.89 99.8703 226.023 100.348 224.512 99.3847L210.944 90.4747C210.458 90.1567 210.042 89.7457 209.718 89.2657L205.364 82.8188C204.216 81.1178 204.402 78.8468 205.811 77.3558C207.387 76.4557 206.105 66.8988 206.105 63.0969L199.161 56.0589L192.096 55.4304C192.096 60.9022 189.565 66.365 184.007 68.0859Z" fill="#F290E8"/>
<path fill-rule="evenodd" clip-rule="evenodd" d="M191.612 54.9016C191.76 54.7658 191.959 54.6986 192.159 54.7164L199.224 55.345C199.393 55.36 199.552 55.4346 199.671 55.5555L206.615 62.5935C206.747 62.7276 206.822 62.9084 206.822 63.0969C206.822 64.0191 206.9 65.3042 206.996 66.7549C207.008 66.9422 207.021 67.1322 207.034 67.3241C207.119 68.6071 207.211 69.9803 207.265 71.2848C207.327 72.7794 207.341 74.2172 207.235 75.3497C207.182 75.9136 207.097 76.4354 206.957 76.8629C206.839 77.2255 206.643 77.6465 206.277 77.9073C205.149 79.1546 205.013 81.0171 205.958 82.4176C205.958 82.4177 205.958 82.4176 205.958 82.4176L210.312 88.8646C210.582 89.2654 210.931 89.6092 211.337 89.875L224.901 98.7827C225.46 99.1372 226.361 99.2662 227.315 99.1539C228.275 99.0411 229.08 98.7093 229.449 98.3658C229.45 98.3649 229.451 98.364 229.452 98.3631L235.338 92.7232C235.621 92.4521 236.069 92.4584 236.344 92.7373L251.639 108.241C251.842 108.447 251.901 108.755 251.79 109.021C251.678 109.288 251.417 109.461 251.128 109.461H231.423C229.112 109.461 226.945 110.417 225.393 112.044C225.257 112.187 225.069 112.267 224.872 112.266C224.675 112.266 224.487 112.184 224.352 112.041L183.485 68.5769C183.315 68.3967 183.251 68.142 183.314 67.903C183.377 67.6639 183.559 67.4743 183.795 67.4011C188.943 65.8075 191.379 60.7215 191.379 55.4304C191.379 55.2293 191.463 55.0374 191.612 54.9016ZM192.796 56.2123C192.578 61.2667 190.242 66.3169 185.275 68.3883L224.898 110.528C226.663 108.944 228.974 108.028 231.423 108.028H249.414L235.819 94.247L230.431 99.4102C229.748 100.049 228.595 100.447 227.483 100.578C226.365 100.709 225.079 100.596 224.126 99.989L224.118 99.9839L210.552 91.0744C209.986 90.7043 209.501 90.2257 209.124 89.6666L204.77 83.2199C203.434 81.2408 203.65 78.5984 205.29 76.8634C205.335 76.8155 205.387 76.7741 205.444 76.7404C205.443 76.7404 205.444 76.7404 205.444 76.7404C205.442 76.7388 205.511 76.6738 205.595 76.4183C205.687 76.1361 205.759 75.7339 205.808 75.2159C205.905 74.1844 205.894 72.8266 205.833 71.3442C205.779 70.0593 205.689 68.7059 205.603 67.4214C205.591 67.2291 205.578 67.0383 205.565 66.8495C205.479 65.5512 205.404 64.3371 205.39 63.3933L198.835 56.7496L192.796 56.2123Z" fill="black"/>
<path d="M179.341 159.618L208.173 139.891C209.373 139.069 210.356 137.974 211.043 136.69L223.447 113.524C223.837 112.795 224.319 112.132 224.877 111.55L184.006 68.0859C183.8 68.1489 183.59 68.2119 183.377 68.2629L173.929 70.5909C171.146 71.2749 168.739 73.0149 167.213 75.4419L165.495 78.1779C161.165 85.0688 165.51 94.1198 173.593 95.0468L186.369 96.5108C191.949 97.1498 196.162 101.875 196.162 107.494V115.534C196.162 117.994 195.343 120.382 193.832 122.323L182.138 137.359C179.671 140.53 175.683 142.11 171.716 141.492L156.397 139.105L176.142 163.479C176.786 161.985 177.854 160.635 179.341 159.618V159.618Z" fill="#FAC8F5"/>
<path fill-rule="evenodd" clip-rule="evenodd" d="M183.798 67.4002C184.058 67.3208 184.342 67.3963 184.529 67.5949L225.399 111.059C225.661 111.336 225.659 111.77 225.395 112.046C224.882 112.58 224.438 113.19 224.079 113.862L211.675 137.028C211.675 137.028 211.675 137.027 211.675 137.028C210.934 138.413 209.872 139.595 208.578 140.482L179.746 160.21C178.373 161.149 177.392 162.391 176.8 163.763C176.7 163.994 176.488 164.155 176.239 164.189C175.991 164.224 175.743 164.125 175.585 163.931L155.84 139.556C155.654 139.325 155.628 139.004 155.776 138.747C155.924 138.49 156.215 138.351 156.508 138.396L171.826 140.784C175.536 141.362 179.265 139.884 181.573 136.918C181.573 136.918 181.573 136.919 181.573 136.918L193.266 121.883C194.679 120.068 195.445 117.834 195.445 115.534V107.494C195.445 102.239 191.505 97.8204 186.288 97.2229L173.511 95.7589C164.903 94.7717 160.278 85.134 164.887 77.7967C164.888 77.7966 164.887 77.7967 164.887 77.7967L166.606 75.0607C168.23 72.4767 170.794 70.6233 173.758 69.8949L183.21 67.5659C183.399 67.5205 183.59 67.4635 183.798 67.4002ZM178.936 159.027L207.768 139.299C208.873 138.542 209.778 137.534 210.411 136.352L222.815 113.186C223.126 112.604 223.492 112.061 223.906 111.563L183.786 68.8976C183.707 68.9191 183.627 68.94 183.546 68.9594C183.545 68.9596 183.545 68.9598 183.544 68.96L174.1 71.2869C171.499 71.9264 169.247 73.5533 167.82 75.8231M167.82 75.8231L166.102 78.559C162.052 85.0037 166.116 93.4678 173.675 94.3347C173.675 94.3347 173.675 94.3347 173.675 94.3347L186.451 95.7986C192.393 96.4791 196.879 101.511 196.879 107.494V115.534C196.879 118.153 196.007 120.696 194.398 122.763C194.398 122.763 194.398 122.763 194.398 122.763L182.704 137.799C180.077 141.175 175.83 142.859 171.606 142.201L158.126 140.099L176.002 162.168C176.703 160.964 177.682 159.884 178.936 159.027" fill="black"/>
<path d="M99.7881 223.395L123.285 218.377C128.541 217.421 134.275 215.509 137.514 209.982L143.354 198.525C145.266 195.44 147.309 193.383 150.179 192.162L139.054 177.759L134.275 176.326L123.802 173.244C122.216 172.764 120.507 172.902 119.02 173.628L113.365 176.385C110.978 177.549 108.127 177.162 106.133 175.41L82.6704 154.752C80.4336 152.784 79.798 149.559 81.1173 146.889L90.4542 127.998C91.6955 125.487 95.5693 123.763 97.1406 124.383L84.101 107.994L79.8701 117.293L75.6393 126.591C74.544 129.019 72.1548 131.408 71.1747 132.174L57.8439 142.293C54.1949 145.062 52.0541 149.376 52.0541 153.954C52.0541 156.513 52.7227 158.982 53.9371 161.139C55.1544 163.299 56.8636 165.335 59.1033 166.476L63.9696 169.425C70.3501 173.289 72.7998 181.338 69.6605 188.106L69.2018 189.096C67.1539 193.506 63.0521 196.611 58.2547 197.382L45.7275 199.401L82.2596 252.018L89.9774 231.849C91.6205 227.559 95.3055 224.382 99.7881 223.395Z" fill="#FAC8F5"/>
<path fill-rule="evenodd" clip-rule="evenodd" d="M84.0134 107.282C84.2609 107.252 84.5066 107.352 84.6619 107.548L97.7014 123.937C97.9035 124.191 97.9097 124.549 97.7165 124.81C97.5233 125.071 97.179 125.17 96.8771 125.05C96.6647 124.966 96.2834 124.936 95.7401 125.038C95.214 125.137 94.6078 125.348 93.9971 125.656C92.7588 126.283 91.625 127.248 91.0967 128.316L81.7599 147.207C81.7598 147.207 81.7599 147.207 81.7599 147.207C80.5841 149.587 81.1507 152.461 83.1439 154.214L106.606 174.872C108.383 176.434 110.924 176.778 113.05 175.741L118.705 172.984C118.705 172.984 118.705 172.984 118.705 172.984C120.354 172.18 122.248 172.026 124.007 172.557C124.008 172.558 124.009 172.558 124.01 172.558L134.477 175.639L134.481 175.64L139.259 177.073C139.403 177.116 139.529 177.203 139.621 177.322L150.746 191.724C150.882 191.9 150.928 192.128 150.872 192.343C150.816 192.558 150.664 192.735 150.459 192.822C147.776 193.964 145.836 195.886 143.979 198.877L138.152 210.308C138.146 210.32 138.139 210.332 138.132 210.344C134.73 216.152 128.725 218.115 123.424 219.08L99.9422 224.095C99.9413 224.095 99.9404 224.095 99.9395 224.096C95.6941 225.031 92.2035 228.041 90.6468 232.105L82.9291 252.274C82.8341 252.522 82.6097 252.697 82.3459 252.729C82.0822 252.761 81.8224 252.645 81.6709 252.427L45.1387 199.81C44.9983 199.608 44.9715 199.347 45.0679 199.121C45.1643 198.894 45.3703 198.733 45.6135 198.694L58.1406 196.675C62.7027 195.941 66.6039 192.989 68.5516 188.794L69.0101 187.805C71.9959 181.368 69.6659 173.713 63.5983 170.038L58.7539 167.103C56.3555 165.873 54.5651 163.714 53.3126 161.491C52.0388 159.229 51.3373 156.639 51.3373 153.954C51.3373 149.152 53.583 144.627 57.4105 141.723C57.4106 141.723 57.4105 141.723 57.4105 141.723L70.7371 131.607C71.183 131.258 71.9895 130.505 72.8202 129.539C73.654 128.569 74.4774 127.424 74.9859 126.297L74.9868 126.295L83.4485 107.697C83.5519 107.47 83.7658 107.313 84.0134 107.282ZM84.2687 109.356L76.2926 126.886C76.2924 126.887 76.2923 126.887 76.2922 126.887C75.7054 128.188 74.7868 129.45 73.9073 130.473C73.027 131.497 72.1511 132.321 71.6161 132.739L71.6081 132.746L58.2773 142.864C54.8069 145.498 52.7708 149.601 52.7708 153.954C52.7708 156.388 53.4067 158.736 54.5616 160.788C55.7396 162.878 57.36 164.784 59.4285 165.838C59.4442 165.846 59.4596 165.854 59.4747 165.863L64.3409 168.812C64.3409 168.812 64.3408 168.812 64.3409 168.812C71.0342 172.866 73.6035 181.309 70.3107 188.408L69.8521 189.398C67.704 194.023 63.4012 197.281 58.3684 198.09L46.9657 199.928L82.0749 250.495L89.308 231.593C91.0371 227.078 94.9155 223.734 99.634 222.695L99.6384 222.694L123.135 217.676C123.142 217.674 123.149 217.673 123.156 217.672C128.359 216.726 133.81 214.868 136.885 209.638L142.716 198.2C142.725 198.182 142.735 198.165 142.745 198.148C144.522 195.28 146.449 193.218 149.064 191.891L138.627 178.38L134.073 177.014L134.069 177.013L123.6 173.932L123.594 173.93C122.181 173.503 120.659 173.626 119.334 174.272L113.679 177.03C113.679 177.03 113.679 177.03 113.679 177.03C111.032 178.321 107.87 177.891 105.66 175.949L82.1969 155.291C79.7165 153.108 79.0119 149.532 80.4746 146.572L89.8116 127.681C90.5246 126.239 91.9485 125.086 93.3502 124.377C94.0595 124.018 94.794 123.757 95.4749 123.629C95.5184 123.621 95.5621 123.613 95.6059 123.606L84.2687 109.356Z" fill="black"/>
<path d="M268.407 164.967L247.937 175.344C246.171 176.241 244.162 176.532 242.213 176.175L226.745 173.337C224.877 172.992 222.949 173.247 221.234 174.06L200.806 183.756C198.029 185.076 194.785 184.884 192.183 183.282L218.328 215.559L218.613 215.448L277.306 168.315L277.984 168.033L271.999 161.67C271.133 163.065 269.894 164.211 268.404 164.967H268.407Z" fill="#FAC8F5"/>
<path fill-rule="evenodd" clip-rule="evenodd" d="M271.928 160.957C272.149 160.935 272.369 161.017 272.521 161.179L278.506 167.542C278.667 167.714 278.734 167.953 278.685 168.183C278.636 168.413 278.476 168.605 278.259 168.695L277.676 168.938L219.062 216.007C219.005 216.053 218.941 216.089 218.873 216.116L218.589 216.227C218.298 216.34 217.968 216.253 217.771 216.01L191.626 183.733C191.406 183.462 191.414 183.072 191.644 182.809C191.875 182.547 192.261 182.489 192.558 182.672C194.956 184.148 197.943 184.324 200.498 183.109L220.926 173.413C222.777 172.536 224.858 172.26 226.874 172.632C226.875 172.632 226.874 172.632 226.874 172.632L242.342 175.47C244.137 175.799 245.987 175.531 247.613 174.705L268.041 164.349C268.054 164.342 268.067 164.335 268.08 164.328C269.452 163.632 270.592 162.577 271.39 161.292C271.508 161.103 271.706 160.979 271.928 160.957ZM268.772 165.584C268.759 165.592 268.745 165.6 268.731 165.607L248.262 175.983C248.262 175.983 248.262 175.983 248.262 175.983C246.356 176.951 244.187 177.266 242.084 176.88L226.615 174.042C224.896 173.725 223.12 173.959 221.541 174.708L201.114 184.404C199.03 185.394 196.702 185.596 194.534 185.046L218.494 214.625L276.79 167.81L272.085 162.808C271.21 163.958 270.082 164.911 268.772 165.584Z" fill="black"/>
<path d="M279.46 137.467L273.001 159.445C272.768 160.237 272.429 160.984 272.003 161.671L277.988 168.034L300.448 158.74L279.463 137.467H279.46Z" fill="#F290E8"/>
<path fill-rule="evenodd" clip-rule="evenodd" d="M278.772 137.265C278.862 136.96 279.142 136.75 279.46 136.75H279.463C279.655 136.75 279.838 136.827 279.973 136.963L300.959 158.236C301.126 158.406 301.198 158.648 301.151 158.882C301.104 159.116 300.943 159.311 300.722 159.402L278.262 168.696C277.987 168.81 277.67 168.742 277.466 168.525L271.481 162.162C271.258 161.925 271.223 161.569 271.394 161.293C271.786 160.659 272.099 159.971 272.314 159.242C272.314 159.242 272.314 159.242 272.314 159.242L278.772 137.265ZM279.805 138.834L273.689 159.647C273.49 160.32 273.221 160.964 272.891 161.569L278.171 167.182L299.19 158.485L279.805 138.834Z" fill="black"/>
<path d="M191.841 183.066L179.362 174.585C175.575 172.011 174.498 167.277 176.141 163.479L156.397 139.105L138.569 136.327C136.488 136.003 134.545 135.091 132.965 133.696L102.223 106.588C100.358 104.944 99.1042 102.718 98.6575 100.273L96.3697 87.676L78.9492 86.491L82.2954 90.0399C86.3792 94.3689 87.4346 100.744 84.9639 106.162L84.1964 107.842L97.1403 124.384C97.2453 124.396 97.3472 124.405 97.4521 124.423L110.183 126.577C111.667 126.829 113.023 127.582 114.018 128.71L129.286 146.005C129.685 146.455 130.143 146.851 130.647 147.178L154.055 162.301C155.932 163.513 157.066 165.597 157.066 167.832C157.066 170.625 155.303 173.118 152.667 174.045L142.599 177.588C141.417 178.005 140.146 178.071 138.932 177.789L150.175 192.159C152.907 190.998 156.016 190.722 159.051 191.538L193.283 200.73C200.122 202.566 204.422 209.328 203.187 216.306L202.215 221.787L218.325 215.556L192.18 183.279C192.066 183.207 191.949 183.138 191.838 183.063L191.841 183.066Z" fill="#F290E8"/>
<path fill-rule="evenodd" clip-rule="evenodd" d="M78.3018 86.1848C78.4277 85.9181 78.7042 85.7558 78.9985 85.7758L96.419 86.9608C96.7465 86.9831 97.0169 87.2249 97.0756 87.5479L99.3632 100.144C99.7812 102.432 100.954 104.513 102.697 106.05L133.439 133.158C134.917 134.463 136.734 135.315 138.68 135.618L156.508 138.396C156.684 138.424 156.843 138.515 156.955 138.653L176.699 163.028C176.867 163.236 176.906 163.519 176.8 163.764C175.284 167.267 176.281 171.624 179.765 173.993L192.213 182.452C192.222 182.458 192.231 182.464 192.24 182.47C192.302 182.512 192.358 182.546 192.426 182.588C192.466 182.613 192.51 182.64 192.563 182.673C192.629 182.715 192.688 182.767 192.737 182.828L218.883 215.105C219.027 215.283 219.078 215.519 219.019 215.741C218.96 215.962 218.798 216.142 218.585 216.225L202.474 222.456C202.233 222.549 201.96 222.505 201.76 222.341C201.56 222.176 201.465 221.917 201.51 221.662L202.481 216.181C203.652 209.569 199.578 203.162 193.098 201.423L158.865 192.231C155.991 191.458 153.045 191.719 150.456 192.819C150.158 192.946 149.811 192.856 149.612 192.601L138.368 178.231C138.18 177.992 138.164 177.66 138.328 177.404C138.491 177.148 138.798 177.022 139.094 177.091C140.177 177.343 141.309 177.284 142.361 176.912L152.43 173.369C154.778 172.543 156.35 170.322 156.35 167.832C156.35 165.84 155.339 163.982 153.667 162.903L130.257 147.779C129.699 147.416 129.191 146.978 128.75 146.48L113.481 129.184C112.595 128.179 111.387 127.508 110.064 127.283L97.3332 125.129L97.3316 125.129C97.2749 125.119 97.2252 125.114 97.1537 125.106C97.1261 125.103 97.0953 125.1 97.0595 125.096C96.8688 125.074 96.6948 124.977 96.5764 124.825L83.6325 108.284C83.4675 108.073 83.4338 107.787 83.545 107.544L84.3124 105.864M191.473 183.681C191.461 183.674 191.45 183.667 191.439 183.659L178.959 175.178C175.004 172.49 173.793 167.622 175.319 163.602L156.014 139.77L138.459 137.035C138.459 137.035 138.459 137.035 138.459 137.035C136.243 136.69 134.174 135.719 132.491 134.233C132.491 134.233 132.491 134.233 132.491 134.233L101.749 107.126C99.7628 105.374 98.4286 103.004 97.953 100.402L95.7649 88.3532L80.7263 87.3302L82.8174 89.5481C82.8175 89.5481 82.8174 89.548 82.8174 89.5481C87.1012 94.0892 88.2082 100.776 85.6167 106.459L85.03 107.743L97.5223 123.708C97.5391 123.71 97.5559 123.713 97.5727 123.716C97.5731 123.716 97.5735 123.716 97.5739 123.716L110.303 125.87C111.949 126.149 113.452 126.984 114.556 128.235L129.823 145.529C130.179 145.931 130.589 146.285 131.038 146.576C131.038 146.576 131.038 146.576 131.038 146.576L154.445 161.698C156.527 163.043 157.783 165.355 157.783 167.832C157.783 170.929 155.828 173.694 152.906 174.722L142.838 178.264C142.093 178.527 141.315 178.664 140.536 178.676L150.408 191.293C153.156 190.248 156.232 190.038 159.237 190.846C159.237 190.846 159.237 190.846 159.237 190.846L193.469 200.038C200.668 201.97 205.193 209.087 203.893 216.431L203.143 220.66L217.15 215.243L191.699 183.824C191.629 183.781 191.548 183.73 191.473 183.681Z" fill="black"/>
<path d="M193.286 200.733L159.054 191.541C156.02 190.725 152.91 191.004 150.179 192.162L180.066 230.358L202.215 221.79L203.187 216.309C204.422 209.331 200.123 202.569 193.283 200.733H193.286Z" fill="white"/>
<path fill-rule="evenodd" clip-rule="evenodd" d="M159.24 190.849C159.24 190.849 159.24 190.849 159.24 190.849L193.472 200.041C193.483 200.044 193.494 200.047 193.505 200.051C200.683 201.997 205.191 209.103 203.893 216.434L202.921 221.915C202.877 222.162 202.708 222.368 202.474 222.459L180.325 231.027C180.031 231.14 179.696 231.048 179.502 230.8L149.614 192.604C149.477 192.428 149.429 192.199 149.485 191.983C149.541 191.767 149.694 191.589 149.899 191.502C152.772 190.284 156.046 189.99 159.24 190.849ZM193.065 201.416L158.868 192.234C156.316 191.547 153.707 191.678 151.341 192.485L180.303 229.498L201.58 221.267L202.481 216.184C202.481 216.184 202.481 216.184 202.481 216.184C203.652 209.572 199.577 203.165 193.097 201.426C193.087 201.423 193.076 201.419 193.065 201.416Z" fill="black"/>
<path d="M223.447 113.524L211.209 136.187C210.523 137.471 209.372 139.068 208.173 139.89L179.341 159.618C177.854 160.635 176.786 161.985 176.142 163.479L192.183 183.282C194.782 184.884 198.03 185.073 200.806 183.756L221.234 174.06C222.949 173.247 224.877 172.992 226.745 173.337L242.214 176.175C244.163 176.532 246.171 176.241 247.938 175.344L268.407 164.967C269.898 164.211 271.133 163.065 272.002 161.67L224.877 111.55C224.322 112.132 223.84 112.792 223.447 113.524Z" fill="white"/>
<path fill-rule="evenodd" clip-rule="evenodd" d="M224.879 110.833C225.076 110.833 225.264 110.915 225.399 111.059L272.525 161.179C272.747 161.416 272.783 161.773 272.611 162.049C271.673 163.553 270.34 164.79 268.732 165.606L248.262 175.983C246.356 176.951 244.187 177.265 242.084 176.88L226.616 174.042C224.897 173.725 223.121 173.959 221.541 174.708L201.114 184.404C198.117 185.825 194.612 185.621 191.807 183.892C191.738 183.85 191.677 183.796 191.626 183.733L175.585 163.93C175.417 163.723 175.378 163.44 175.483 163.195C176.181 161.58 177.335 160.122 178.936 159.027C178.936 159.027 178.936 159.027 178.936 159.027L207.768 139.299C208.828 138.572 209.912 137.092 210.577 135.849L210.579 135.846L222.815 113.185C222.815 113.184 222.816 113.184 222.816 113.184C223.239 112.394 223.76 111.683 224.358 111.055C224.494 110.912 224.683 110.832 224.879 110.833ZM224.897 112.617C224.591 113.002 224.317 113.418 224.078 113.862L224.078 113.864L211.841 136.525C211.841 136.525 211.841 136.525 211.841 136.526C211.132 137.85 209.916 139.565 208.578 140.482L179.746 160.21C178.504 161.059 177.582 162.157 176.979 163.375L192.661 182.734C195.038 184.152 197.979 184.304 200.499 183.108L220.927 173.413C222.777 172.535 224.858 172.26 226.875 172.632L242.343 175.47C242.343 175.47 242.343 175.47 242.343 175.47C244.138 175.799 245.987 175.531 247.613 174.705L268.083 164.328C268.083 164.328 268.083 164.328 268.083 164.328C269.289 163.716 270.315 162.826 271.09 161.746L224.897 112.617Z" fill="black"/>
<path d="M179.363 174.586L191.842 183.067C191.953 183.142 192.07 183.214 192.184 183.283L176.142 163.48C174.499 167.278 175.576 172.012 179.363 174.586Z" fill="white"/>
<path fill-rule="evenodd" clip-rule="evenodd" d="M176.044 162.77C176.293 162.736 176.541 162.834 176.699 163.029L192.74 182.831C192.959 183.102 192.952 183.491 192.723 183.754C192.494 184.016 192.11 184.076 191.812 183.896C191.696 183.826 191.566 183.746 191.44 183.66L191.438 183.659L178.959 175.178L178.959 175.178C174.87 172.399 173.713 167.288 175.484 163.195C175.583 162.965 175.796 162.804 176.044 162.77ZM176.395 164.931C175.53 168.189 176.659 171.882 179.765 173.993C179.765 173.993 179.765 173.993 179.765 173.993L188.598 179.996L176.395 164.931Z" fill="black"/>
<path d="M224.877 111.55L272.002 161.67C272.431 160.983 272.77 160.236 273.001 159.444L279.459 137.466L251.131 108.745H231.425C228.916 108.745 226.559 109.783 224.877 111.55V111.55Z" fill="white"/>
<path fill-rule="evenodd" clip-rule="evenodd" d="M224.358 111.055C226.173 109.148 228.717 108.028 231.425 108.028H251.13C251.322 108.028 251.506 108.105 251.641 108.241L279.969 136.963C280.152 137.149 280.22 137.419 280.147 137.669L273.689 159.645C273.689 159.645 273.689 159.645 273.689 159.645C273.439 160.502 273.073 161.309 272.61 162.05C272.492 162.238 272.294 162.362 272.072 162.384C271.851 162.405 271.632 162.323 271.48 162.161L224.354 112.041L224.877 111.55L224.358 111.055ZM225.882 111.573L271.849 160.461C272.034 160.07 272.19 159.664 272.312 159.244L278.652 137.669L250.831 109.461H231.425C229.347 109.461 227.383 110.234 225.882 111.573Z" fill="black"/>
<path d="M69.2019 189.096L69.6606 188.107C72.7999 181.339 70.3503 173.29 63.9697 169.426L59.1034 166.477C56.9176 165.148 55.1545 163.3 53.9372 161.14C52.7229 158.983 52.0542 156.514 52.0542 153.955C52.0542 149.377 54.1951 145.063 57.8441 142.294L72.1554 131.408C74.0834 129.947 74.6349 128.794 75.6394 126.592L84.1967 107.842L66.8452 85.6661L65.6818 85.5881L0.956055 134.917L45.7277 199.401L58.2549 197.382C63.0522 196.611 67.154 193.506 69.2019 189.096Z" fill="white"/>
<path fill-rule="evenodd" clip-rule="evenodd" d="M65.2473 85.018C65.3853 84.9129 65.5567 84.8613 65.7298 84.8729L66.8931 84.9509C67.0964 84.9646 67.2842 85.064 67.4097 85.2244L84.7612 107.4C84.9262 107.611 84.9599 107.896 84.8488 108.14L76.2915 126.889C76.2915 126.889 76.2915 126.889 76.2915 126.889C75.794 127.98 75.3813 128.875 74.8376 129.679C74.2823 130.501 73.6043 131.21 72.5883 131.98L58.278 142.864C54.8076 145.498 52.771 149.601 52.771 153.955C52.771 156.389 53.4069 158.737 54.5618 160.788C55.7196 162.842 57.3964 164.6 59.4758 165.864L64.3411 168.812C64.3411 168.813 64.341 168.812 64.3411 168.812C71.0343 172.866 73.6037 181.309 70.3109 188.408L69.8523 189.398C67.7042 194.024 63.4013 197.281 58.3686 198.09L45.8417 200.109C45.5695 200.153 45.2962 200.037 45.1389 199.81L0.367299 135.326C0.148577 135.011 0.216576 134.579 0.521602 134.347L65.2473 85.018ZM65.9023 86.3213L1.93591 135.071L46.0591 198.622L58.1408 196.675C62.7029 195.942 66.6041 192.989 68.5518 188.795L69.0103 187.805C71.9961 181.368 69.6661 173.713 63.5985 170.039L58.731 167.089C56.4389 165.695 54.5897 163.757 53.3128 161.492C52.039 159.229 51.3375 156.639 51.3375 153.955C51.3375 149.153 53.5832 144.627 57.4108 141.723L71.7225 130.837C72.6345 130.146 73.1963 129.548 73.6499 128.877C74.115 128.188 74.4803 127.406 74.9873 126.294L83.3638 107.941L66.4779 86.3599L65.9023 86.3213Z" fill="black"/>
<path d="M84.9639 106.162C87.4345 100.744 86.3791 94.369 82.2953 90.04L78.9491 86.491L66.8447 85.666L84.1963 107.842L84.9639 106.162Z" fill="white"/>
<path fill-rule="evenodd" clip-rule="evenodd" d="M66.2124 85.3303C66.3449 85.0803 66.6121 84.9316 66.8944 84.9509L78.9988 85.7759C79.1789 85.7882 79.3478 85.8679 79.4716 85.9993L82.8177 89.5481C82.8177 89.5482 82.8176 89.5481 82.8177 89.5481C87.1015 94.0892 88.2085 100.776 85.617 106.459L84.8492 108.14C84.7452 108.367 84.5299 108.524 84.2814 108.554C84.0328 108.583 83.787 108.481 83.6327 108.284L66.2812 86.1077C66.1068 85.8849 66.0799 85.5803 66.2124 85.3303ZM68.4009 86.4904L84.0352 106.472L84.3127 105.864C86.6622 100.712 85.6584 94.6485 81.7749 90.5318L78.6212 87.187L68.4009 86.4904Z" fill="black"/>
<path d="M102.223 106.588L132.965 133.696C134.545 135.09 136.488 136.002 138.569 136.326L156.397 139.104L115.473 88.5848L114.984 88.9448L96.3701 87.6758L98.6579 100.273C99.1046 102.718 100.358 104.944 102.223 106.588Z" fill="white"/>
<path fill-rule="evenodd" clip-rule="evenodd" d="M95.8358 87.1982C95.9831 87.0334 96.1983 86.9459 96.4189 86.9609L114.77 88.212L115.048 88.0079C115.356 87.7807 115.789 87.8362 116.03 88.1338L156.954 138.654C157.141 138.884 157.167 139.205 157.019 139.462C156.871 139.719 156.58 139.859 156.287 139.813L138.459 137.035C138.459 137.035 138.459 137.035 138.459 137.035C136.243 136.69 134.174 135.719 132.491 134.233M132.491 134.233L101.749 107.126C101.749 107.126 101.749 107.126 101.749 107.126C99.7626 105.375 98.4283 103.004 97.9528 100.402L95.6649 87.8041C95.6254 87.5866 95.6884 87.363 95.8358 87.1982M97.2398 88.4537L99.363 100.144C99.363 100.144 99.3629 100.144 99.363 100.144C99.781 102.431 100.953 104.513 102.697 106.05L133.439 133.158C134.917 134.463 136.734 135.316 138.679 135.618L154.669 138.11L115.344 89.5648C115.221 89.6364 115.078 89.6699 114.935 89.6601L97.2398 88.4537Z" fill="black"/>
<path d="M191.293 60.7991L191.509 60.1001C191.998 58.5252 192.117 56.9472 191.926 55.4442L170.403 53.6172L184.007 68.0861C187.476 67.0121 190.208 64.2941 191.293 60.7991Z" fill="white"/>
<path fill-rule="evenodd" clip-rule="evenodd" d="M169.758 53.3051C169.887 53.0378 170.168 52.8779 170.464 52.903L191.986 54.73C192.323 54.7585 192.594 55.0183 192.637 55.3534C192.841 56.9571 192.713 58.6386 192.193 60.3126L191.978 61.0107L191.977 61.0117C190.822 64.7325 187.914 67.627 184.219 68.7708C183.957 68.8518 183.672 68.7766 183.485 68.5771L169.881 54.1082C169.678 53.8918 169.629 53.5724 169.758 53.3051ZM172.207 54.4897L184.215 67.2613C187.258 66.1742 189.637 63.7131 190.608 60.5865L190.824 59.8886L190.824 59.8877C191.22 58.6114 191.357 57.3363 191.271 56.108L172.207 54.4897Z" fill="black"/>
<path d="M171.716 141.493C175.683 142.111 179.671 140.53 182.138 137.359L193.832 122.323C195.343 120.382 196.162 117.994 196.162 115.534V107.494C196.162 101.875 191.949 97.15 186.369 96.511L173.593 95.047C165.509 94.12 161.165 85.0691 165.494 78.1781L167.212 75.4421C168.739 73.0151 171.146 71.2751 173.929 70.5912L183.377 68.2632C183.59 68.2122 183.799 68.1492 184.006 68.0862L170.403 53.6173L163.611 53.0413L115.473 88.585L156.397 139.105L171.716 141.493V141.493Z" fill="white"/>
<path fill-rule="evenodd" clip-rule="evenodd" d="M163.186 52.4646C163.326 52.3612 163.499 52.3123 163.672 52.327L170.463 52.903C170.639 52.918 170.804 52.9975 170.925 53.1263L184.529 67.5952C184.698 67.7757 184.763 68.0312 184.699 68.2706C184.635 68.5101 184.452 68.6996 184.215 68.7718C184.01 68.8344 183.782 68.9031 183.546 68.9596L183.544 68.9602L174.1 71.2871C171.499 71.9266 169.247 73.5536 167.819 75.8233M167.819 75.8233L166.101 78.5593C162.052 85.0039 166.116 93.468 173.675 94.3349L186.451 95.7989C192.393 96.4793 196.878 101.511 196.878 107.494V115.534C196.878 118.153 196.007 120.696 194.398 122.763L182.704 137.799C180.077 141.175 175.83 142.859 171.606 142.201L156.287 139.813C156.111 139.786 155.952 139.694 155.84 139.556L114.916 89.0362C114.793 88.8842 114.737 88.6884 114.762 88.4943C114.786 88.3002 114.889 88.1246 115.047 88.0084L163.186 52.4646M182.661 67.7013L170.069 54.3082L163.82 53.7783L116.501 88.7164L156.781 138.439L171.826 140.784C175.536 141.362 179.265 139.884 181.573 136.919L193.266 121.883C194.679 120.068 195.445 117.835 195.445 115.534V107.494C195.445 102.239 191.505 97.8206 186.287 97.2231L173.511 95.7591C164.903 94.772 160.277 85.1342 164.887 77.7969L166.605 75.0609C168.23 72.4769 170.794 70.6235 173.758 69.8951L182.661 67.7013Z" fill="black"/>
<path d="M206.431 74.0667C206.431 74.0667 206.587 76.5401 205.813 77.3561C204.404 78.8471 204.218 81.1181 205.367 82.8191L208.82 88.4021C209.144 88.8821 210.461 90.157 210.947 90.475L224.514 99.3849C226.22 100.507 228.472 100.3 229.944 98.887L235.836 93.241L206.107 63.0972L206.431 74.0667Z" fill="white"/>
<path fill-rule="evenodd" clip-rule="evenodd" d="M205.825 62.4381C206.096 62.3223 206.411 62.3841 206.618 62.5939L236.346 92.7377C236.481 92.8743 236.555 93.0592 236.553 93.2511C236.55 93.443 236.47 93.6257 236.332 93.7585L230.441 99.4041C230.44 99.4042 230.441 99.4039 230.441 99.4041C228.727 101.048 226.106 101.289 224.121 99.984C224.12 99.984 224.121 99.9841 224.121 99.984L210.554 91.0747C210.554 91.0747 210.554 91.0747 210.554 91.0747C210.246 90.8733 209.751 90.4294 209.323 90.0133C208.897 89.5992 208.435 89.1128 208.226 88.803C208.22 88.7951 208.215 88.7872 208.21 88.7792L204.764 83.2078C203.437 81.2301 203.656 78.5951 205.292 76.8637L205.293 76.8629C205.366 76.7857 205.462 76.6126 205.544 76.31C205.623 76.0219 205.671 75.6841 205.698 75.3482C205.724 75.0156 205.729 74.7035 205.726 74.4734C205.725 74.359 205.722 74.2663 205.72 74.2032C205.718 74.1716 205.717 74.1476 205.716 74.132L205.715 74.1152L205.715 74.1119C205.715 74.1039 205.714 74.0958 205.714 74.0878L205.391 63.1183C205.382 62.8238 205.554 62.5539 205.825 62.4381ZM207.147 74.0353L207.148 74.0573C207.149 74.0783 207.15 74.1082 207.152 74.1459C207.155 74.2213 207.158 74.3282 207.16 74.4584C207.162 74.7176 207.158 75.0748 207.127 75.4625C207.096 75.847 207.038 76.2806 206.928 76.6857C206.822 77.0763 206.647 77.5182 206.334 77.8489C205.156 79.0959 205 80.9953 205.961 82.418C205.966 82.4259 205.971 82.4339 205.976 82.442L209.421 88.0112C209.542 88.1863 209.895 88.5705 210.322 88.9853C210.755 89.4061 211.161 89.7586 211.339 89.8753L211.34 89.8759L224.908 98.7858C226.334 99.7241 228.217 99.5512 229.448 98.3698L234.815 93.2266L206.877 64.8989L207.147 74.0353Z" fill="black"/>
<path d="M90.4544 127.999L81.1175 146.89C79.7983 149.56 80.4339 152.785 82.6707 154.753L106.133 175.411C108.127 177.166 110.978 177.55 113.365 176.386L119.02 173.629C120.51 172.903 122.216 172.765 123.802 173.245L138.518 177.685C138.656 177.727 138.794 177.76 138.935 177.793L97.1438 124.384C94.3853 124.051 91.6988 125.485 90.4574 127.999H90.4544Z" fill="white"/>
<path fill-rule="evenodd" clip-rule="evenodd" d="M89.8433 127.624C91.2325 124.871 94.1924 123.306 97.2297 123.672C97.4187 123.695 97.5909 123.792 97.7083 123.942L139.5 177.351C139.687 177.59 139.703 177.922 139.539 178.178C139.375 178.435 139.068 178.56 138.772 178.49C138.631 178.458 138.473 178.42 138.31 178.37L123.595 173.931C122.182 173.503 120.662 173.626 119.334 174.273L113.679 177.03C111.032 178.321 107.87 177.895 105.659 175.949L82.1972 155.291C79.7169 153.108 79.0122 149.532 80.4749 146.572L89.8118 127.681C89.8215 127.662 89.832 127.643 89.8433 127.624ZM136.995 176.476L96.7688 125.068C94.4132 124.9 92.1624 126.165 91.1001 128.316C91.0908 128.335 91.0808 128.353 91.07 128.371L81.7601 147.207C80.5843 149.587 81.151 152.461 83.1441 154.215L106.606 174.872C108.383 176.436 110.924 176.778 113.051 175.741L118.706 172.984C120.358 172.179 122.25 172.026 124.009 172.558M124.009 172.558L136.995 176.476Z" fill="black"/>
<path d="M142.605 177.591L152.673 174.048C155.309 173.121 157.072 170.631 157.072 167.835C157.072 165.6 155.938 163.515 154.062 162.303L130.653 147.181C130.147 146.854 129.688 146.461 129.292 146.008L114.024 128.713C113.029 127.585 111.674 126.832 110.189 126.58L97.4583 124.426C97.3534 124.408 97.2514 124.399 97.1465 124.387L138.938 177.795C140.152 178.077 141.423 178.011 142.605 177.594V177.591Z" fill="white"/>
<path fill-rule="evenodd" clip-rule="evenodd" d="M96.521 124.037C96.6622 123.784 96.9408 123.642 97.2279 123.675C97.2443 123.676 97.2631 123.678 97.2837 123.681C97.3648 123.689 97.4741 123.701 97.5786 123.719C97.5789 123.719 97.5783 123.719 97.5786 123.719L110.309 125.873C111.954 126.152 113.457 126.987 114.562 128.238C114.562 128.238 114.562 128.238 114.562 128.238L129.832 145.536C130.182 145.937 130.589 146.286 131.042 146.578L154.45 161.701C154.45 161.701 154.45 161.701 154.45 161.701C156.532 163.046 157.789 165.358 157.789 167.835C157.789 170.935 155.834 173.697 152.911 174.725C152.911 174.725 152.911 174.725 152.911 174.725L142.902 178.247C142.883 178.255 142.863 178.263 142.843 178.27C141.532 178.733 140.121 178.806 138.776 178.494C138.616 178.457 138.474 178.366 138.373 178.237L96.582 124.828C96.4039 124.601 96.3799 124.289 96.521 124.037ZM98.8387 125.386L139.341 177.148C140.331 177.335 141.353 177.265 142.31 176.938C142.329 176.93 142.347 176.922 142.367 176.915L152.435 173.372C154.784 172.546 156.355 170.328 156.355 167.835C156.355 165.843 155.345 163.985 153.673 162.906L130.265 147.783C129.704 147.421 129.195 146.985 128.754 146.481C128.753 146.48 128.753 146.48 128.752 146.479L113.487 129.187C112.6 128.182 111.393 127.511 110.07 127.286L98.8387 125.386Z" fill="black"/>
<path d="M81.7119 252.304C85.5347 243.703 86.9682 229.367 95.0917 224.589C102.737 219.81 123.763 219.81 132.842 214.076C140.009 209.298 140.487 195.44 150.044 191.139L180.626 230.801L177.759 232.712L106.56 287.187L81.7119 252.304Z" fill="white"/>
<path fill-rule="evenodd" clip-rule="evenodd" d="M95.0917 224.589C89.4114 227.93 87.0021 235.944 84.7597 243.403C83.7952 246.612 82.8616 249.717 81.7119 252.304L106.56 287.187L177.759 232.712L180.626 230.801L150.044 191.139C144.757 193.518 142.249 198.822 139.849 203.896C137.911 207.993 136.044 211.941 132.842 214.076C128.091 217.077 120.068 218.507 112.404 219.874C105.422 221.119 98.7364 222.311 95.0917 224.589ZM149.71 192.584C145.86 194.675 143.659 198.6 141.581 202.925C141.353 203.399 141.127 203.878 140.899 204.359C140.042 206.171 139.173 208.009 138.197 209.664C136.955 211.77 135.475 213.699 133.478 215.03L133.466 215.038L133.454 215.046C131.035 216.573 127.884 217.684 124.478 218.575C121.061 219.469 117.301 220.163 113.631 220.82C113.29 220.881 112.949 220.942 112.61 221.002C109.282 221.596 106.062 222.17 103.205 222.852C100.038 223.609 97.4442 224.471 95.6995 225.561L95.6864 225.569L95.6731 225.577C91.9965 227.74 89.7172 232.152 87.8707 237.394C87.1427 239.461 86.5 241.598 85.8618 243.721C85.6981 244.265 85.5347 244.809 85.3701 245.35C84.6428 247.743 83.8946 250.088 83.0211 252.165L106.806 285.555L177.092 231.779L178.968 230.528L149.71 192.584Z" fill="black"/>
<path d="M116.663 55.5356C125.316 70.6709 134.994 85.0915 144.945 99.3925C144.945 99.3925 164.382 69.9359 173.307 54.8194C185.501 34.1697 167.116 9.5358 144.945 8.88385C121.576 8.19667 104.868 34.8972 116.663 55.5356ZM144.945 54.6755C137.124 54.7468 130.656 48.2558 130.719 40.3988C130.78 32.6029 137.079 26.3846 144.894 26.405C152.698 26.4254 158.972 32.6947 158.985 40.4854C158.996 48.2418 152.701 54.6054 144.945 54.6755Z" fill="black"/>
<path d="M116.663 47.8901C125.316 63.0254 134.994 77.446 144.945 91.747C144.945 91.747 164.382 62.2904 173.307 47.1739C185.501 26.5242 167.116 1.89029 144.945 1.23834C121.576 0.551162 104.868 27.2517 116.663 47.8901ZM144.945 47.0299C137.124 47.1013 130.656 40.6103 130.719 32.7533C130.78 24.9574 137.079 18.7391 144.894 18.7595C152.698 18.7798 158.972 25.0491 158.985 32.8399C158.996 40.5963 152.701 46.9599 144.945 47.0299Z" fill="#38B3D1"/>
<path fill-rule="evenodd" clip-rule="evenodd" d="M116.041 48.2457C103.958 27.105 121.056 -0.181214 144.965 0.521859C156.307 0.85537 166.651 7.31609 172.61 16.3111C178.578 25.3202 180.183 36.9378 173.923 47.5384C169.453 55.1104 162.355 66.2646 156.381 75.5179C153.392 80.1463 150.683 84.302 148.721 87.3006C147.739 88.8 146.945 90.0101 146.396 90.8454C146.121 91.2631 145.908 91.5871 145.763 91.8067L145.543 92.1414C145.543 92.1416 145.543 92.1417 144.944 91.7469L145.543 92.1414C145.412 92.3398 145.191 92.4607 144.953 92.4637C144.715 92.4666 144.492 92.3515 144.356 92.1563C134.402 77.8504 124.709 63.4091 116.041 48.2457ZM144.928 90.4682C145.01 90.3437 145.1 90.2068 145.198 90.058C145.747 89.2234 146.541 88.0141 147.521 86.5157C149.482 83.5188 152.19 79.3656 155.176 74.7403C161.151 65.4862 168.235 54.3539 172.689 46.8095C178.623 36.7604 177.134 25.7361 171.415 17.1028C165.687 8.45543 155.753 2.27322 144.923 1.95478C122.095 1.2835 105.777 27.3984 117.285 47.5344C125.747 62.3355 135.195 76.4575 144.928 90.4682ZM144.891 19.4762C137.469 19.4568 131.493 25.359 131.435 32.7589C131.376 40.2185 137.52 46.3809 144.938 46.3132C152.3 46.2467 158.278 40.2037 158.267 32.8411C158.255 25.4461 152.303 19.4956 144.891 19.4762ZM130.001 32.7475C130.066 24.5557 136.688 18.0213 144.895 18.0427C153.093 18.0641 159.688 24.6521 159.701 32.8387C159.713 40.9887 153.101 47.673 144.951 47.7467C136.726 47.8217 129.936 41.002 130.001 32.7475Z" fill="black"/>
</svg>
