<svg width="1500" height="235" viewBox="0 0 1500 235" fill="none" xmlns="http://www.w3.org/2000/svg">
<path d="M1301.06 143.213C1301.06 147.54 1297.55 151.055 1293.22 151.055C1288.89 151.055 1285.38 147.54 1285.38 143.213V102.752C1285.38 69.4702 1258.3 42.3797 1225 42.3797C1191.71 42.3797 1164.63 69.4577 1164.63 102.752V203.948H1217.16V102.752C1217.16 98.4244 1220.68 94.9099 1225 94.9099C1229.33 94.9099 1232.85 98.4244 1232.85 102.752V143.213C1232.85 176.494 1259.92 203.585 1293.22 203.585C1326.51 203.585 1353.59 176.507 1353.59 143.213V41.6667H1301.06V143.213Z" fill="black"/>
<path d="M860.132 96.886H837.957V149.416H860.132C863.309 180.246 889.436 204.373 921.092 204.373H962.803V151.843H921.092C916.264 151.843 912.337 147.915 912.337 143.088V103.215C912.337 98.3869 916.264 94.4596 921.092 94.4596H962.803V41.9294H921.092C889.436 41.9294 863.309 66.0558 860.132 96.886Z" fill="black"/>
<path d="M494.984 96.7605H472.809V149.291H494.984C498.161 180.121 524.289 204.247 555.944 204.247H597.656V151.717H555.944C551.117 151.717 547.189 147.79 547.189 142.962V103.089C547.189 98.2614 551.117 94.3342 555.944 94.3342H597.656V41.804H555.944C524.289 41.804 498.161 65.9303 494.984 96.7605Z" fill="black"/>
<path d="M698.564 41.8794C653.813 41.8794 617.417 78.2878 617.417 123.026C617.417 167.764 653.826 204.173 698.564 204.173C743.302 204.173 779.711 167.764 779.711 123.026C779.711 78.2878 743.302 41.8794 698.564 41.8794ZM698.564 151.655C682.78 151.655 669.948 138.81 669.948 123.039C669.948 107.267 682.793 94.4221 698.564 94.4221C714.336 94.4221 727.181 107.267 727.181 123.039C727.181 138.81 714.336 151.655 698.564 151.655Z" fill="black"/>
<path d="M1434.02 94.9848H1500V42.4546H1434.02C1401.16 42.4546 1374.35 68.8573 1373.69 101.576H1373.65V204.46H1426.18V162.674C1428.75 163.011 1431.36 163.199 1434.02 163.199H1500V110.656H1434.02C1429.7 110.656 1426.18 107.142 1426.18 102.814C1426.18 98.4868 1429.7 94.9723 1434.02 94.9723V94.9848Z" fill="black"/>
<path d="M363.622 103.165V142.9C363.622 147.728 359.695 151.655 354.867 151.655H326.175V204.185H354.867C388.661 204.185 416.152 176.694 416.152 142.9V103.165C416.152 98.3369 420.079 94.4096 424.907 94.4096H453.599V41.8794H424.907C391.113 41.8794 363.622 69.3702 363.622 103.165Z" fill="black"/>
<path d="M243.39 52.9107C233.459 45.9692 221.39 41.8794 208.37 41.8794H179.678V94.4096H208.37C213.197 94.4096 217.125 98.3369 217.125 103.165V142.9C217.125 147.728 213.197 151.655 208.37 151.655H179.678V204.185H208.37C221.39 204.185 233.459 200.095 243.39 193.154C253.321 200.095 265.39 204.185 278.41 204.185H307.101V151.655H278.41C273.582 151.655 269.655 147.728 269.655 142.9V103.165C269.655 98.3369 273.582 94.4096 278.41 94.4096H307.101V41.8794H278.41C265.39 41.8794 253.321 45.9692 243.39 52.9107Z" fill="black"/>
<path d="M79.0329 41.8794H0V204.248H79.0329C123.796 204.248 160.217 167.827 160.217 123.064C160.217 78.3003 123.796 41.8794 79.0329 41.8794ZM79.0329 151.718H52.5302V94.4096H79.0329C94.8295 94.4096 107.687 107.267 107.687 123.064C107.687 138.86 94.8295 151.718 79.0329 151.718Z" fill="black"/>
<path d="M1293.22 130.792C1298.1 130.792 1302.06 126.83 1302.06 121.95V21.4045H1352.59V121.95C1352.59 154.692 1325.96 181.323 1293.22 181.323C1260.48 181.323 1233.85 154.68 1233.85 121.95V81.4897C1233.85 76.6099 1229.88 72.6477 1225 72.6477C1220.12 72.6477 1216.16 76.6099 1216.16 81.4897V181.685H1165.63V81.4897C1165.63 48.7478 1192.26 22.1175 1225 22.1175C1257.75 22.1175 1284.38 48.7602 1284.38 81.4897V121.95C1284.38 126.83 1288.34 130.792 1293.22 130.792Z" fill="#6C64CE" stroke="black" stroke-width="2"/>
<path d="M860.132 76.6236H861.034L861.127 75.7261C864.251 45.4 889.955 21.667 921.092 21.667H961.803V72.1972H921.092C915.712 72.1972 911.337 76.5722 911.337 81.9522V121.825C911.337 127.205 915.712 131.58 921.092 131.58H961.803V182.11H921.092C889.955 182.11 864.251 158.377 861.127 128.051L861.034 127.154H860.132H838.957V76.6236H860.132Z" fill="#6C64CE" stroke="black" stroke-width="2"/>
<path d="M494.984 76.4986H495.887L495.979 75.6011C499.104 45.275 524.807 21.542 555.944 21.542H596.656V72.0722H555.944C550.564 72.0722 546.189 76.4472 546.189 81.8272V121.7C546.189 127.08 550.564 131.455 555.944 131.455H596.656V181.985H555.944C524.807 181.985 499.104 158.252 495.979 127.926L495.887 127.029H494.984H473.809V76.4986H494.984Z" fill="#6C64CE" stroke="black" stroke-width="2"/>
<path d="M618.417 101.764C618.417 57.5776 654.366 21.6169 698.564 21.6169C742.75 21.6169 778.711 57.5777 778.711 101.764C778.711 145.95 742.75 181.91 698.564 181.91C654.378 181.91 618.417 145.95 618.417 101.764ZM668.948 101.776C668.948 118.1 682.228 131.393 698.564 131.393C714.888 131.393 728.181 118.1 728.181 101.776C728.181 85.4523 714.888 72.1597 698.564 72.1597C682.24 72.1597 668.948 85.4523 668.948 101.776Z" fill="#6C64CE" stroke="black" stroke-width="2"/>
<path d="M1434.02 90.3938H1499V140.937H1434.02C1431.41 140.937 1428.84 140.752 1426.31 140.42L1425.18 140.271V141.411V182.198H1374.65V81.3136H1374.67L1374.69 80.3339C1375.34 48.1579 1401.7 22.1921 1434.02 22.1921H1499V72.7223H1435.02V72.7098H1434.02C1429.14 72.7098 1425.18 76.6721 1425.18 81.5518C1425.18 86.4316 1429.14 90.3938 1434.02 90.3938Z" fill="#6C64CE" stroke="black" stroke-width="2"/>
<path d="M364.622 121.638V81.9022C364.622 48.66 391.665 21.6169 424.907 21.6169H452.599V72.1471H424.907C419.527 72.1471 415.152 76.5221 415.152 81.9022V121.638C415.152 154.88 388.109 181.923 354.867 181.923H327.175V131.393H354.867C360.247 131.393 364.622 127.018 364.622 121.638Z" fill="#6C64CE" stroke="black" stroke-width="2"/>
<path d="M242.817 32.4679L243.39 32.8684L243.963 32.4679C253.732 25.6392 265.603 21.6169 278.41 21.6169H306.101V72.1471H278.41C273.03 72.1471 268.655 76.5221 268.655 81.9022V121.638C268.655 127.018 273.03 131.393 278.41 131.393H306.101V181.923H278.41C265.603 181.923 253.732 177.9 243.963 171.072L243.39 170.671L242.817 171.072C233.048 177.9 221.177 181.923 208.37 181.923H180.678V131.393H208.37C213.75 131.393 218.125 127.018 218.125 121.638V81.9022C218.125 76.5221 213.75 72.1471 208.37 72.1471H180.678V21.6169H208.37C221.177 21.6169 233.048 25.6392 242.817 32.4679Z" fill="#6C64CE" stroke="black" stroke-width="2"/>
<path d="M51.5302 130.455V131.455H52.5302H79.0329C95.3818 131.455 108.687 118.15 108.687 101.801C108.687 85.4523 95.3818 72.1471 79.0329 72.1471H52.5302H51.5302V73.1471V130.455ZM1 181.985V21.6169H79.0329C123.244 21.6169 159.217 57.5902 159.217 101.801C159.217 146.012 123.244 181.985 79.0329 181.985H1Z" fill="#6C64CE" stroke="black" stroke-width="2"/>
<path d="M1063.64 234.307C1122.54 234.307 1170.28 186.559 1170.28 127.659C1170.28 68.7592 1122.54 21.0115 1063.64 21.0115C1004.74 21.0115 956.99 68.7592 956.99 127.659C956.99 186.559 1004.74 234.307 1063.64 234.307Z" fill="black"/>
<path d="M1169.28 107.648C1169.28 165.995 1121.98 213.295 1063.64 213.295C1005.29 213.295 957.99 165.995 957.99 107.648C957.99 49.3 1005.29 2 1063.64 2C1121.98 2 1169.28 49.3 1169.28 107.648Z" fill="white" stroke="black" stroke-width="2" stroke-miterlimit="10"/>
<path d="M1063.64 214.295C1092.24 214.295 1115.43 166.547 1115.43 107.648C1115.43 48.7478 1092.24 1 1063.64 1C1035.03 1 1011.84 48.7478 1011.84 107.648C1011.84 166.547 1035.03 214.295 1063.64 214.295Z" stroke="black" stroke-width="2" stroke-miterlimit="10"/>
<path d="M1063.64 1V214.295" stroke="black" stroke-width="2" stroke-miterlimit="10"/>
<path d="M1170.28 106.167H956.99" stroke="black" stroke-width="2" stroke-miterlimit="10"/>
<path d="M1155.98 161.031H1108.48H1063.64H1018.79H971.307" stroke="black" stroke-width="2" stroke-miterlimit="10"/>
<path d="M1154.18 51.2842H1107.61H1063.64H1019.66H973.089" stroke="black" stroke-width="2" stroke-miterlimit="10"/>
</svg>
