<svg width="354" height="172" viewBox="0 0 354 172" fill="none" xmlns="http://www.w3.org/2000/svg">
<path d="M224.241 143.127C224.241 145.075 222.659 146.658 220.711 146.658C218.763 146.658 217.181 145.075 217.181 143.127V124.908C217.181 109.925 204.991 97.7301 190.003 97.7301C175.015 97.7301 162.826 109.92 162.826 124.908V170.463H186.473V124.908C186.473 122.96 188.055 121.377 190.003 121.377C191.951 121.377 193.533 122.96 193.533 124.908V143.127C193.533 158.11 205.723 170.305 220.711 170.305C235.699 170.305 247.888 158.115 247.888 143.127V97.4148H224.241V143.127Z" fill="black" stroke="black"/>
<path d="M25.755 122.272H15.7725V145.92H25.755C27.1851 159.798 38.9468 170.659 53.1972 170.659H71.9743V147.012H53.1972C51.0239 147.012 49.2559 145.244 49.2559 143.071V125.121C49.2559 122.948 51.0239 121.18 53.1972 121.18H71.9743V97.5327H53.1972C38.9468 97.5327 27.1851 108.394 25.755 122.272V122.272Z" fill="black" stroke="black"/>
<path d="M256.942 124.378H256.925V170.693H280.572V151.882C281.726 152.034 282.903 152.119 284.102 152.119H313.802V128.471H284.102C282.154 128.471 280.572 126.889 280.572 124.941C280.572 122.993 282.154 121.411 284.102 121.411H313.802V97.7634H284.102C269.306 97.7634 257.24 109.649 256.942 124.378V124.378Z" fill="black" stroke="black"/>
<path d="M270.545 60.7048H251.767C249.594 60.7048 247.826 58.9369 247.826 56.7636V38.8141C247.826 36.6408 249.594 34.8729 251.767 34.8729H270.545V11.2256H251.767C237.517 11.2256 225.755 22.0865 224.325 35.9652H214.343V59.6125H224.325C225.755 73.4912 237.517 84.3521 251.767 84.3521H270.545V60.7048Z" fill="black" stroke="black"/>
<path d="M315.97 11.2588C295.825 11.2588 279.441 27.6486 279.441 47.7883C279.441 67.9279 295.831 84.3178 315.97 84.3178C336.11 84.3178 352.5 67.9279 352.5 47.7883C352.5 27.6486 336.11 11.2588 315.97 11.2588ZM315.97 60.6761C308.865 60.6761 303.088 54.8937 303.088 47.7939C303.088 40.6941 308.865 34.9117 315.97 34.9117C323.076 34.9117 328.853 40.6941 328.853 47.7939C328.853 54.8937 323.07 60.6761 315.97 60.6761Z" fill="black" stroke="black"/>
<path d="M188.837 56.7292V38.8417C188.837 36.6684 190.605 34.9005 192.779 34.9005H205.695V11.2588H192.779C177.566 11.2588 165.19 23.6342 165.19 38.8473V56.7349C165.19 58.9082 163.422 60.6761 161.249 60.6761H148.333V84.3234H161.249C176.462 84.3234 188.837 71.948 188.837 56.7349V56.7292Z" fill="black" stroke="black"/>
<path d="M111.066 79.3575C115.537 82.4823 120.97 84.3178 126.831 84.3178H139.747V60.6704H126.831C124.658 60.6704 122.89 58.9025 122.89 56.7292V38.8417C122.89 36.6684 124.658 34.9005 126.831 34.9005H139.747V11.2588H126.831C120.97 11.2588 115.537 13.0999 111.066 16.2247C106.596 13.0999 101.162 11.2588 95.3012 11.2588H82.3853V34.9061H95.3012C97.4745 34.9061 99.2424 36.674 99.2424 38.8473V56.7349C99.2424 58.9082 97.4745 60.6761 95.3012 60.6761H82.3853V84.3234H95.3012C101.162 84.3234 106.596 82.4823 111.066 79.3575Z" fill="black" stroke="black"/>
<path d="M37.078 11.2588H1.5V84.3516H37.078C57.2289 84.3516 73.6244 67.9561 73.6244 47.8052C73.6244 27.6543 57.2289 11.2588 37.078 11.2588ZM37.078 60.7042H25.1473V34.9061H37.078C44.1891 34.9061 49.977 40.6941 49.977 47.8052C49.977 54.9163 44.1891 60.7042 37.078 60.7042Z" fill="black" stroke="black"/>
<path d="M224.241 133.127C224.241 135.075 222.659 136.658 220.711 136.658C218.763 136.658 217.181 135.075 217.181 133.127V114.908C217.181 99.9254 204.991 87.7301 190.003 87.7301C175.015 87.7301 162.826 99.9197 162.826 114.908V160.463H186.473V114.908C186.473 112.96 188.055 111.377 190.003 111.377C191.951 111.377 193.533 112.96 193.533 114.908V133.127C193.533 148.11 205.723 160.305 220.711 160.305C235.699 160.305 247.888 148.115 247.888 133.127V87.4148H224.241V133.127Z" fill="#6C64CE" stroke="black" stroke-width="1.12606"/>
<path d="M25.755 112.272H15.7725V135.92H25.755C27.1851 149.798 38.9468 160.659 53.1972 160.659H71.9743V137.012H53.1972C51.0239 137.012 49.2559 135.244 49.2559 133.071V115.121C49.2559 112.948 51.0239 111.18 53.1972 111.18H71.9743V87.5327H53.1972C38.9468 87.5327 27.1851 98.3936 25.755 112.272V112.272Z" fill="#6C64CE" stroke="black" stroke-width="1.12606"/>
<path d="M256.942 114.378H256.925V160.693H280.572V141.882C281.726 142.034 282.903 142.119 284.102 142.119H313.802V118.471H284.102C282.154 118.471 280.572 116.889 280.572 114.941C280.572 112.993 282.154 111.411 284.102 111.411H313.802V87.7634H284.102C269.306 87.7634 257.24 99.649 256.942 114.378V114.378Z" fill="#6C64CE" stroke="black" stroke-width="1.12606"/>
<path d="M270.545 50.7048H251.767C249.594 50.7048 247.826 48.9369 247.826 46.7636V28.8141C247.826 26.6408 249.594 24.8729 251.767 24.8729H270.545V1.22559H251.767C237.517 1.22559 225.755 12.0865 224.325 25.9652H214.343V49.6125H224.325C225.755 63.4912 237.517 74.3521 251.767 74.3521H270.545V50.7048Z" fill="#6C64CE" stroke="black" stroke-width="1.12606"/>
<path d="M315.97 1.25879C295.825 1.25879 279.441 17.6486 279.441 37.7883C279.441 57.9279 295.831 74.3178 315.97 74.3178C336.11 74.3178 352.5 57.9279 352.5 37.7883C352.5 17.6486 336.11 1.25879 315.97 1.25879ZM315.97 50.6761C308.865 50.6761 303.088 44.8937 303.088 37.7939C303.088 30.6941 308.865 24.9117 315.97 24.9117C323.076 24.9117 328.853 30.6941 328.853 37.7939C328.853 44.8937 323.07 50.6761 315.97 50.6761Z" fill="#6C64CE" stroke="black" stroke-width="1.12606"/>
<path d="M188.837 46.7292V28.8417C188.837 26.6684 190.605 24.9005 192.779 24.9005H205.695V1.25879H192.779C177.566 1.25879 165.19 13.6342 165.19 28.8473V46.7349C165.19 48.9082 163.422 50.6761 161.249 50.6761H148.333V74.3234H161.249C176.462 74.3234 188.837 61.948 188.837 46.7349V46.7292Z" fill="#6C64CE" stroke="black" stroke-width="1.12606"/>
<path d="M111.066 69.3575C115.537 72.4823 120.97 74.3178 126.831 74.3178H139.747V50.6704H126.831C124.658 50.6704 122.89 48.9025 122.89 46.7292V28.8417C122.89 26.6684 124.658 24.9005 126.831 24.9005H139.747V1.25879H126.831C120.97 1.25879 115.537 3.0999 111.066 6.22473C106.596 3.0999 101.162 1.25879 95.3012 1.25879H82.3853V24.9061H95.3012C97.4745 24.9061 99.2424 26.674 99.2424 28.8473V46.7349C99.2424 48.9082 97.4745 50.6761 95.3012 50.6761H82.3853V74.3234H95.3012C101.162 74.3234 106.596 72.4823 111.066 69.3575Z" fill="#6C64CE" stroke="black" stroke-width="1.12606"/>
<path d="M37.078 1.25879H1.5V74.3516H37.078C57.2289 74.3516 73.6244 57.9561 73.6244 37.8052C73.6244 17.6543 57.2289 1.25879 37.078 1.25879ZM37.078 50.7042H25.1473V24.9061H37.078C44.1891 24.9061 49.977 30.6941 49.977 37.8052C49.977 44.9163 44.1891 50.7042 37.078 50.7042Z" fill="#6C64CE" stroke="black" stroke-width="1.12606"/>
<path fill-rule="evenodd" clip-rule="evenodd" d="M117.256 92.9619C96.2197 92.9619 79.1924 110.548 79.1924 132.209C79.1924 153.871 96.2197 171.457 117.256 171.457C138.293 171.457 155.32 153.871 155.32 132.209C155.32 110.548 138.293 92.9619 117.256 92.9619Z" fill="black"/>
<path d="M117.256 163.957C138.002 163.957 154.82 146.609 154.82 125.209C154.82 103.81 138.002 86.4619 117.256 86.4619C96.5103 86.4619 79.6924 103.81 79.6924 125.209C79.6924 146.609 96.5103 163.957 117.256 163.957Z" fill="white" stroke="black" stroke-width="1.12606" stroke-miterlimit="10"/>
<path fill-rule="evenodd" clip-rule="evenodd" d="M98.4579 124.109H79.6924V125.235H98.4507C98.4527 132.043 99.276 138.453 100.728 144.042H84.7354V145.168H101.032C101.818 147.97 102.765 150.549 103.847 152.848C107.171 159.906 111.873 164.52 117.256 164.52C122.64 164.52 127.342 159.906 130.665 152.848C131.748 150.549 132.695 147.97 133.481 145.168H149.781V144.042H133.785C135.237 138.453 136.06 132.043 136.062 125.235H154.82V124.109H136.055C135.965 117.26 135.045 110.842 133.493 105.294H149.149V104.168H133.166C132.446 101.782 131.607 99.5709 130.665 97.571C127.342 90.5127 122.64 85.8989 117.256 85.8989C111.873 85.8989 107.171 90.5127 103.847 97.571C102.906 99.5709 102.067 101.782 101.347 104.168H85.3628V105.294H101.02C99.4678 110.842 98.5472 117.26 98.4579 124.109ZM102.19 105.294C100.618 110.797 99.6751 117.221 99.584 124.109H116.693V105.294H102.19ZM117.819 105.294V124.109H134.929C134.837 117.221 133.895 110.797 132.323 105.294H117.819ZM131.988 104.168H117.819V87.0445C122.3 87.3554 126.498 91.3645 129.646 98.0507C130.521 99.9076 131.306 101.957 131.988 104.168ZM116.693 104.168H102.524C103.206 101.957 103.992 99.9076 104.866 98.0507C108.014 91.3644 112.212 87.3552 116.693 87.0445V104.168ZM104.866 152.368C103.851 150.212 102.955 147.795 102.202 145.168H116.693V163.374C112.212 163.064 108.014 159.055 104.866 152.368ZM101.892 144.042H116.693V125.235H99.5767C99.5788 132.079 100.422 138.494 101.892 144.042ZM117.819 163.374V145.168H132.31C131.558 147.795 130.662 150.212 129.646 152.368C126.498 159.054 122.3 163.064 117.819 163.374ZM117.819 144.042H132.621C134.091 138.494 134.934 132.079 134.936 125.235H117.819V144.042Z" fill="black"/>
</svg>
