<svg width="96" height="103" viewBox="0 0 96 103" fill="none" xmlns="http://www.w3.org/2000/svg">
<g clip-path="url(#clip0_413_459)">
<path d="M82.8527 84.6686L72.0579 87.3891C70.7573 87.7158 69.6348 88.4925 68.857 89.5737L62.39 98.58C60.7934 100.816 57.8072 101.556 55.3116 100.376L45.231 95.5453C44.0229 94.966 42.6541 94.83 41.3535 95.1568L30.5586 97.8773C27.8874 98.5542 25.1149 97.215 23.9486 94.7217L19.306 84.5849C18.7548 83.3786 17.7816 82.3971 16.5735 81.8178L6.49296 76.9869C4.00261 75.7872 2.72604 72.9891 3.45103 70.3492L6.42755 59.6621C6.76959 58.379 6.66412 57.0177 6.11811 55.7915L1.4755 45.6548C0.334414 43.147 1.1436 40.1913 3.42827 38.6485L12.6079 32.4039C13.7 31.6614 14.5082 30.5461 14.8701 29.2683L17.8466 18.5813C18.5716 15.9414 21.1181 14.2153 23.8756 14.4925L34.9905 15.6031C36.3196 15.7284 37.6651 15.3926 38.7572 14.65L47.9368 8.40539C50.2016 6.85729 53.2676 7.1753 55.2139 9.13825L63.0375 17.085C63.9762 18.0361 65.224 18.6261 66.5479 18.771L77.6627 19.8817C80.4004 20.1536 82.5827 22.3493 82.7883 25.0918L83.6694 36.1619C83.7854 37.4838 84.3461 38.735 85.2847 39.6861L93.1084 47.6329C95.0546 49.5958 95.2807 52.6611 93.6841 54.897L87.2171 63.9033C86.4393 64.9845 86.0669 66.3017 86.1829 67.6236L87.064 78.6938C87.2895 81.4416 85.5001 83.9217 82.8288 84.5986L82.8527 84.6686Z" fill="black" stroke="black" stroke-width="2" stroke-miterlimit="10"/>
<path d="M82.8527 78.2464L72.0579 80.9669C70.7573 81.2937 69.6348 82.0704 68.857 83.1515L62.39 92.1579C60.7934 94.3938 57.8072 95.134 55.3116 93.954L45.231 89.1231C44.0229 88.5439 42.6541 88.4079 41.3535 88.7347L30.5586 91.4552C27.8874 92.1321 25.1149 90.7929 23.9486 88.2996L19.306 78.1628C18.7548 76.9564 17.7816 75.975 16.5735 75.3957L6.49296 70.5648C4.00261 69.3651 2.72604 66.5669 3.45103 63.927L6.42755 53.24C6.76959 51.9569 6.66412 50.5955 6.11811 49.3694L1.4755 39.2327C0.334414 36.7249 1.1436 33.7692 3.42827 32.2264L12.6079 25.9818C13.7 25.2392 14.5082 24.124 14.8701 22.8462L17.8466 12.1592C18.5716 9.51927 21.1181 7.79313 23.8756 8.07038L34.9905 9.18101C36.3196 9.30626 37.6651 8.97046 38.7572 8.22787L47.9368 1.98327C50.2016 0.435174 53.2676 0.753185 55.2139 2.71613L63.0375 10.6629C63.9762 11.614 65.224 12.2039 66.5479 12.3489L77.6627 13.4596C80.4004 13.7315 82.5827 15.9272 82.7883 18.6697L83.6694 29.7398C83.7854 31.0617 84.3461 32.3129 85.2847 33.2639L93.1084 41.2107C95.0546 43.1737 95.2807 46.239 93.6841 48.4749L87.2171 57.4812C86.4393 58.5624 86.0669 59.8796 86.1829 61.2015L87.064 72.2716C87.2895 75.0194 85.5001 77.4996 82.8288 78.1765L82.8527 78.2464Z" fill="#F290E8" stroke="black" stroke-width="2" stroke-miterlimit="10"/>
<path d="M19.3944 47.5113C23.0024 48.4781 26.3923 46.4909 27.3733 42.8296C28.3544 39.1682 26.4123 35.7523 22.8042 34.7855C19.1785 33.814 15.7886 35.8012 14.8075 39.4625C13.8265 43.1239 15.7686 46.5398 19.3944 47.5113ZM19.9243 45.4626C17.667 44.8578 16.5046 42.5842 17.1714 40.0959C17.8381 37.6077 19.9863 36.2021 22.2436 36.8069C24.5186 37.4165 25.6762 39.7079 25.0095 42.1962C24.3427 44.6844 22.1993 46.0722 19.9243 45.4626ZM27.5424 49.5422L29.8885 50.1708L32.2364 41.4085L35.2917 51.6186L37.8155 52.2949L41.1492 39.8534L38.8031 39.2248L36.4505 48.0049L33.4177 37.7818L30.8761 37.1008L27.5424 49.5422ZM40.1956 52.9326L48.3714 55.1233L48.9191 53.0794L43.1072 51.5221L45.8932 41.1246L43.5293 40.4912L40.1956 52.9326ZM49.7766 55.4998L52.1405 56.1332L55.4742 43.6918L53.1103 43.0584L49.7766 55.4998ZM54.515 56.7695L56.8611 57.3981L59.209 48.6358L62.2643 58.8459L64.7881 59.5221L68.1218 47.0807L65.7757 46.4521L63.4231 55.2322L60.3903 45.0091L57.8487 44.3281L54.515 56.7695ZM67.1682 60.1599L75.6462 62.4316L76.1938 60.3876L70.062 58.7446L70.9526 55.4209L75.7158 56.6973L76.2588 54.6711L71.4955 53.3948L72.3051 50.3733L78.2414 51.9639L78.7843 49.9377L70.5019 47.7185L67.1682 60.1599Z" fill="#FFF7F0"/>
</g>
<defs>
<clipPath id="clip0_413_459">
<rect width="96" height="102.128" fill="white"/>
</clipPath>
</defs>
</svg>
