<svg width="214" height="228" viewBox="0 0 214 228" fill="none" xmlns="http://www.w3.org/2000/svg">
<g clip-path="url(#clip0_346_806)">
<path d="M140.329 169.825L156.508 153.646C157.308 152.846 158.606 152.846 159.407 153.646L211.381 205.62C213.479 207.718 213.479 211.127 211.381 213.226L199.91 224.697C197.811 226.795 194.402 226.795 192.304 224.697L140.329 172.723C139.529 171.923 139.529 170.625 140.329 169.825V169.825Z" fill="black" stroke="black" stroke-width="1.5" stroke-miterlimit="10"/>
<path d="M140.822 145.659L131.342 155.139L143.679 167.475L153.159 157.995L140.822 145.659Z" fill="black" stroke="black" stroke-width="1.5" stroke-miterlimit="10"/>
<path d="M82.3342 175.796C126.6 175.796 162.484 139.913 162.484 95.6482C162.484 51.3836 126.6 15.5 82.3342 15.5C38.0688 15.5 2.18457 51.3836 2.18457 95.6482C2.18457 139.913 38.0688 175.796 82.3342 175.796Z" fill="black" stroke="black" stroke-width="1.5" stroke-miterlimit="10"/>
<path d="M140.329 155.825L156.508 139.646C157.308 138.846 158.606 138.846 159.407 139.646L211.381 191.62C213.479 193.718 213.479 197.127 211.381 199.226L199.91 210.697C197.811 212.795 194.402 212.795 192.304 210.697L140.329 158.723C139.529 157.923 139.529 156.625 140.329 155.825V155.825Z" fill="#38B3D1" stroke="black" stroke-width="1.5" stroke-miterlimit="10"/>
<path d="M140.822 130.659L131.342 140.139L143.679 152.475L153.159 142.995L140.822 130.659Z" fill="black" stroke="black" stroke-width="1.5" stroke-miterlimit="10"/>
<path d="M82.3342 161.796C126.6 161.796 162.484 125.913 162.484 81.6482C162.484 37.3836 126.6 1.5 82.3342 1.5C38.0688 1.5 2.18457 37.3836 2.18457 81.6482C2.18457 125.913 38.0688 161.796 82.3342 161.796Z" fill="#F290E8" stroke="black" stroke-width="1.5" stroke-miterlimit="10"/>
<path d="M82.3338 138.865C113.934 138.865 139.551 113.248 139.551 81.6483C139.551 50.0484 113.934 24.4316 82.3338 24.4316C50.7334 24.4316 25.1162 50.0484 25.1162 81.6483C25.1162 113.248 50.7334 138.865 82.3338 138.865Z" fill="white" stroke="black" stroke-width="1.5" stroke-linecap="round" stroke-linejoin="round"/>
</g>
<defs>
<clipPath id="clip0_346_806">
<rect width="214" height="228" fill="white"/>
</clipPath>
</defs>
</svg>
